<svg width="11" height="10" viewBox="0 0 11 10" fill="none" xmlns="http://www.w3.org/2000/svg">
<path d="M5.55738 8.12089L7.51858 6.16028L7.09883 5.74054L5.85381 6.98555V4.19908H5.26095V6.98555L4.01593 5.74054L3.59618 6.16028L5.55738 8.12089ZM1.40732 2.55744V8.82818C1.40732 8.9345 1.44151 9.02185 1.50988 9.09023C1.57826 9.1586 1.66581 9.19279 1.77252 9.19279H9.34283C9.44915 9.19279 9.5365 9.1586 9.60488 9.09023C9.67325 9.02185 9.70744 8.9345 9.70744 8.82818V2.55744H1.40732ZM1.86383 9.78566C1.59822 9.78566 1.35693 9.67717 1.13994 9.46018C0.922947 9.24319 0.814453 9.00209 0.814453 8.73688V2.36654C0.814453 2.25112 0.832832 2.14243 0.86959 2.04046C0.906347 1.93849 0.961682 1.84462 1.03559 1.75885L1.95928 0.650189C2.04505 0.534382 2.15235 0.447033 2.2812 0.388142C2.41005 0.32925 2.54819 0.299805 2.69562 0.299805H8.39662C8.54365 0.299805 8.68356 0.32925 8.81636 0.388142C8.94917 0.447033 9.05845 0.534184 9.14422 0.649596L10.0792 1.78197C10.1531 1.86774 10.2084 1.96358 10.2452 2.06951C10.2819 2.17504 10.3003 2.28571 10.3003 2.40151V8.73629C10.3003 9.0015 10.1918 9.24259 9.97482 9.45958C9.75784 9.67657 9.51674 9.78507 9.25153 9.78507L1.86383 9.78566ZM1.63261 1.96457H9.4703L8.68178 1.01717C8.64345 0.979229 8.59957 0.948993 8.55017 0.926464C8.50076 0.903935 8.44938 0.892671 8.39602 0.892671H2.70688C2.65392 0.892671 2.60254 0.904133 2.55274 0.927057C2.50294 0.949981 2.45946 0.980415 2.42231 1.01836L1.63261 1.96457Z" fill="#939393"/>
</svg>
