<svg width="17" height="19" viewBox="0 0 17 19" fill="none" xmlns="http://www.w3.org/2000/svg">
<path d="M2.07357 13.1972V16.2479C2.07357 17.2107 2.81678 17.9912 3.73358 17.9912H13.6936C14.6104 17.9912 15.3536 17.2107 15.3536 16.2479V13.1972M8.71358 5.78838V8.40327M8.71358 5.78838C9.76138 5.78838 10.3736 4.94451 10.3736 3.50035C10.3736 2.05619 8.71361 0.558594 8.71361 0.558594C8.71361 0.558594 7.05361 2.05619 7.05361 3.50035C7.05361 4.94451 7.66579 5.78838 8.71358 5.78838ZM1.24365 11.0182V10.1465C1.24365 9.18372 1.98686 8.40327 2.90365 8.40327H14.5237C15.4405 8.40327 16.1837 9.18372 16.1837 10.1465V11.0182C16.1837 12.4624 15.0688 13.633 13.6936 13.633C12.3184 13.633 11.2037 12.4624 11.2037 11.0182C11.2037 12.4624 10.0889 13.633 8.71369 13.633C7.33847 13.633 6.22366 12.4624 6.22366 11.0182C6.22366 12.4624 5.10884 13.633 3.73365 13.633C2.35847 13.633 1.24365 12.4624 1.24365 11.0182Z" stroke="white" stroke-width="0.784467" stroke-linecap="round" stroke-linejoin="round"/>
</svg>
