<svg width="25" height="24" viewBox="0 0 25 24" fill="none" xmlns="http://www.w3.org/2000/svg">
<path d="M2.5 19V9C2.5 7.89543 3.39543 7 4.5 7H5C5.62951 7 6.22229 6.70361 6.6 6.2L8.82 3.24C8.93331 3.08892 9.11115 3 9.3 3H15.7C15.8889 3 16.0667 3.08892 16.18 3.24L18.4 6.2C18.7777 6.70361 19.3705 7 20 7H20.5C21.6046 7 22.5 7.89543 22.5 9V19C22.5 20.1046 21.6046 21 20.5 21H4.5C3.39543 21 2.5 20.1046 2.5 19Z" stroke="white" stroke-width="1.5" stroke-linecap="round" stroke-linejoin="round"/>
<path d="M12.5 17C14.7091 17 16.5 15.2091 16.5 13C16.5 10.7909 14.7091 9 12.5 9C10.2909 9 8.5 10.7909 8.5 13C8.5 15.2091 10.2909 17 12.5 17Z" stroke="white" stroke-width="1.5" stroke-linecap="round" stroke-linejoin="round"/>
</svg>
