<svg width="9" height="10" viewBox="0 0 9 10" fill="none" xmlns="http://www.w3.org/2000/svg">
<path d="M4.30338 7.16381L2.20523 5.06625L2.62498 4.63939L4.00695 6.02136V0.893066H4.59981V6.02136L5.98119 4.63998L6.40153 5.06625L4.30338 7.16381ZM1.11139 9.19319C0.838278 9.19319 0.61042 9.10189 0.427817 8.91928C0.245214 8.73668 0.153716 8.50863 0.15332 8.23512V6.7986H0.746186V8.23512C0.746186 8.32642 0.78413 8.41021 0.860016 8.48649C0.935903 8.56278 1.0195 8.60072 1.1108 8.60032H7.49596C7.58687 8.60032 7.67046 8.56238 7.74675 8.48649C7.82303 8.41061 7.86097 8.32681 7.86058 8.23512V6.7986H8.45344V8.23512C8.45344 8.50823 8.36214 8.73609 8.17954 8.91869C7.99694 9.10129 7.76888 9.19279 7.49537 9.19319H1.11139Z" fill="#939393"/>
</svg>
