<svg width="21" height="25" viewBox="0 0 21 25" fill="none" xmlns="http://www.w3.org/2000/svg">
<path d="M17.294 0.11377H6.75884C5.96053 0.11377 5.19491 0.430897 4.63042 0.995388C4.06593 1.55988 3.7488 2.32549 3.7488 3.1238C2.95049 3.1238 2.18488 3.44093 1.62039 4.00542C1.0559 4.56991 0.73877 5.33553 0.73877 6.13384V21.184C0.73877 21.9823 1.0559 22.7479 1.62039 23.3124C2.18488 23.8769 2.95049 24.194 3.7488 24.194H14.2839C15.0822 24.194 15.8478 23.8769 16.4123 23.3124C16.9768 22.7479 17.294 21.9823 17.294 21.184C18.0923 21.184 18.8579 20.8669 19.4224 20.3024C19.9869 19.7379 20.304 18.9723 20.304 18.174V3.1238C20.304 2.32549 19.9869 1.55988 19.4224 0.995388C18.8579 0.430897 18.0923 0.11377 17.294 0.11377ZM17.294 19.679V6.13384C17.294 5.33553 16.9768 4.56991 16.4123 4.00542C15.8478 3.44093 15.0822 3.1238 14.2839 3.1238H5.25382C5.25382 2.72465 5.41238 2.34184 5.69463 2.0596C5.97687 1.77735 6.35968 1.61879 6.75884 1.61879H17.294C17.6931 1.61879 18.0759 1.77735 18.3582 2.0596C18.6404 2.34184 18.799 2.72465 18.799 3.1238V18.174C18.799 18.5731 18.6404 18.9559 18.3582 19.2382C18.0759 19.5204 17.6931 19.679 17.294 19.679ZM2.24379 6.13384C2.24379 5.73468 2.40235 5.35187 2.6846 5.06963C2.96684 4.78738 3.34965 4.62882 3.7488 4.62882H14.2839C14.6831 4.62882 15.0659 4.78738 15.3481 5.06963C15.6304 5.35187 15.7889 5.73468 15.7889 6.13384V21.184C15.7889 21.5832 15.6304 21.966 15.3481 22.2482C15.0659 22.5305 14.6831 22.689 14.2839 22.689H3.7488C3.34965 22.689 2.96684 22.5305 2.6846 22.2482C2.40235 21.966 2.24379 21.5832 2.24379 21.184V6.13384Z" fill="#939393"/>
</svg>
