<svg width="20" height="20" viewBox="0 0 20 20" fill="none" xmlns="http://www.w3.org/2000/svg">
<path fill-rule="evenodd" clip-rule="evenodd" d="M7.26465 10.1355C7.26465 8.54091 8.55727 7.24829 10.1519 7.24829C11.7465 7.24829 13.0391 8.54091 13.0391 10.1355C13.0391 11.7301 11.7465 13.0227 10.1519 13.0227C8.55727 13.0227 7.26465 11.7301 7.26465 10.1355ZM10.1519 8.40318C9.1951 8.40318 8.41954 9.17874 8.41954 10.1355C8.41954 11.0923 9.1951 11.8679 10.1519 11.8679C11.1087 11.8679 11.8842 11.0923 11.8842 10.1355C11.8842 9.17874 11.1087 8.40318 10.1519 8.40318Z" fill="#939393"/>
<path fill-rule="evenodd" clip-rule="evenodd" d="M8.80873 2.28937C8.87549 2.03569 9.10485 1.85889 9.36716 1.85889H10.8718C11.1342 1.85889 11.3637 2.03582 11.4303 2.28962L11.8366 3.83614L13.3284 4.44965L14.3961 3.5372C14.6253 3.34139 14.9665 3.35474 15.1796 3.56787L16.7195 5.10773C16.9318 5.32003 16.9459 5.65961 16.7521 5.88888L15.8434 6.96356L16.4432 8.41187L17.9933 8.80605C18.2493 8.87114 18.4285 9.1016 18.4284 9.36571L18.4284 10.888C18.4284 11.1509 18.2508 11.3806 17.9963 11.4468L16.4374 11.8524L15.8368 13.3027L16.7516 14.3818C16.9459 14.611 16.932 14.951 16.7195 15.1635L15.1796 16.7033C14.9627 16.9202 14.6141 16.9297 14.3857 16.7249L14.343 16.6867L14.226 16.5826C14.1275 16.4952 13.9929 16.3764 13.848 16.2503C13.6693 16.0947 13.486 15.9378 13.3368 15.8148L11.8757 16.4199L11.4814 17.9767C11.4165 18.2329 11.186 18.4123 10.9216 18.4123H9.38179C9.11734 18.4123 8.88668 18.2327 8.82193 17.9763L8.42887 16.4199L7.00949 15.836L5.89695 16.7427C5.66731 16.9298 5.33331 16.9128 5.12384 16.7033L3.58398 15.1635C3.36757 14.9471 3.3576 14.5994 3.56126 14.3709L4.48549 13.3342L3.87812 11.8933L2.30037 11.4626C2.04921 11.394 1.875 11.1659 1.875 10.9055V9.36568C1.875 9.09732 2.05987 8.86434 2.32121 8.80335L3.85681 8.44496L4.44767 6.99227L3.54413 5.88017C3.35754 5.65051 3.37475 5.31696 3.58398 5.10773L5.12384 3.56787C5.34008 3.35163 5.68742 3.34148 5.91592 3.54472L6.95591 4.46972L8.39453 3.86329L8.80873 2.28937ZM9.81231 3.01378L9.43908 4.43199C9.39348 4.60525 9.27004 4.74754 9.10495 4.81713L7.06873 5.67547C6.86359 5.76194 6.62701 5.72279 6.46066 5.57484L5.55535 4.76962L4.76886 5.55611L5.55946 6.5292C5.69234 6.69275 5.72558 6.91569 5.64618 7.11089L4.81399 9.15693C4.74337 9.33056 4.59287 9.45911 4.41034 9.50171L3.02989 9.82388V10.4646L4.4532 10.8532C4.62425 10.8999 4.76436 11.0225 4.83323 11.1859L5.69142 13.2218C5.77799 13.4271 5.73865 13.664 5.59036 13.8303L4.78617 14.7324L5.57167 15.5179L6.54643 14.7235C6.71065 14.5897 6.93498 14.5565 7.13091 14.6371L9.13722 15.4625C9.3064 15.5321 9.4326 15.6778 9.4774 15.8551L9.83154 17.2574H10.4722L10.8273 15.8554C10.8721 15.6787 10.9977 15.5335 11.1661 15.4637L13.2069 14.6186C13.391 14.5423 13.6015 14.5664 13.7636 14.6823C13.961 14.8234 14.3197 15.1297 14.6063 15.3792C14.6547 15.4214 14.702 15.4627 14.7473 15.5024L15.5268 14.7229L14.728 13.7807C14.5881 13.6157 14.5522 13.3863 14.635 13.1864L15.4804 11.145C15.5496 10.9778 15.6933 10.8527 15.8685 10.8071L17.2735 10.4415L17.2735 9.81466L15.8781 9.45982C15.7016 9.41493 15.5566 9.2894 15.4869 9.12112L14.6418 7.08035C14.5591 6.8807 14.5948 6.65159 14.7343 6.48657L15.5273 5.54879L14.7405 4.76206L13.8104 5.55694C13.6457 5.6977 13.416 5.73441 13.2156 5.652L11.1315 4.79491C10.9641 4.72605 10.8386 4.58266 10.7926 4.40757L10.4265 3.01378H9.81231Z" fill="#939393"/>
</svg>
