<svg width="19" height="19" viewBox="0 0 19 19" fill="none" xmlns="http://www.w3.org/2000/svg">
<path d="M14.6525 8.79849C14.3256 6.3714 12.2417 4.5 9.71656 4.5C7.1914 4.5 5.1157 6.3714 4.78064 8.79849C4.73978 9.01914 4.72344 9.25613 4.72344 9.48495C4.72344 9.71376 4.73978 9.95075 4.78064 10.1714C5.10753 12.5985 7.1914 14.4699 9.71656 14.4699C12.2417 14.4699 14.3174 12.5985 14.6525 10.1714C14.6933 9.95075 14.7097 9.71376 14.7097 9.48495C14.7097 9.25613 14.6933 9.01914 14.6525 8.79849ZM9.71656 13.097C7.96774 13.097 6.4886 11.8303 6.17806 10.1714C6.1372 9.95075 6.11269 9.71376 6.11269 9.48495C6.11269 9.25613 6.1372 9.01914 6.17806 8.79849C6.49677 7.14774 7.96774 5.8729 9.71656 5.8729C11.4654 5.8729 12.9445 7.13957 13.2551 8.79849C13.2959 9.01914 13.3204 9.25613 13.3204 9.48495C13.3204 9.71376 13.2959 9.95075 13.2551 10.1714C12.9363 11.8222 11.4654 13.097 9.71656 13.097Z" fill="#828186"/>
<path d="M11.0323 1.3157C11.0323 1.38108 11.0323 1.43828 11.0159 1.49548C10.926 2.1329 10.3785 2.6314 9.71656 2.6314C9.05462 2.6314 8.5071 2.14108 8.4172 1.49548C8.40903 1.43828 8.40086 1.38108 8.40086 1.3157C8.40086 1.25032 8.40086 1.19312 8.4172 1.13591C8.5071 0.498495 9.05462 0 9.71656 0C10.3785 0 10.926 0.490323 11.0159 1.13591C11.0241 1.19312 11.0323 1.25032 11.0323 1.3157Z" fill="#828186"/>
<path d="M4.95226 3.32602C4.95226 3.3914 4.95226 3.4486 4.93591 3.50581C4.84602 4.14323 4.29849 4.64172 3.63656 4.64172C2.97462 4.64172 2.4271 4.1514 2.3372 3.50581C2.32903 3.4486 2.32086 3.3914 2.32086 3.32602C2.32086 3.26065 2.32086 3.20344 2.3372 3.14624C2.4271 2.50882 2.97462 2.01032 3.63656 2.01032C4.29849 2.01032 4.84602 2.50064 4.93591 3.14624C4.94409 3.20344 4.95226 3.26065 4.95226 3.32602Z" fill="#828186"/>
<path d="M2.62323 8.59699C2.62323 8.66237 2.62323 8.71957 2.60688 8.77677C2.51699 9.41419 1.96946 9.91269 1.30753 9.91269C0.645591 9.91269 0.0980645 9.42237 0.0163441 8.77677C0.00817204 8.71957 0 8.66237 0 8.59699C0 8.53161 0 8.47441 0.0163441 8.4172C0.106237 7.77979 0.653763 7.28129 1.3157 7.28129C1.97763 7.28129 2.52516 7.77161 2.61505 8.4172C2.62323 8.47441 2.6314 8.53161 2.6314 8.59699H2.62323Z" fill="#828186"/>
<path d="M16.9652 3.32602C16.9652 3.3914 16.9652 3.4486 16.9488 3.50581C16.8589 4.14323 16.3114 4.64172 15.6495 4.64172C14.9875 4.64172 14.44 4.1514 14.3501 3.50581C14.3419 3.4486 14.3338 3.3914 14.3338 3.32602C14.3338 3.26065 14.3338 3.20344 14.3501 3.14624C14.44 2.50882 14.9875 2.01032 15.6495 2.01032C16.3114 2.01032 16.8589 2.50064 16.9488 3.14624C16.957 3.20344 16.9652 3.26065 16.9652 3.32602Z" fill="#828186"/>
<path d="M8.26194 17.2103C8.26194 17.1449 8.26194 17.0877 8.27828 17.0305C8.36817 16.3931 8.9157 15.8946 9.57763 15.8946C10.2396 15.8946 10.7871 16.3849 10.877 17.0305C10.8852 17.0877 10.8933 17.1449 10.8933 17.2103C10.8933 17.2757 10.8933 17.3329 10.877 17.3901C10.7871 18.0275 10.2396 18.526 9.57763 18.526C8.9157 18.526 8.36817 18.0357 8.27828 17.3901C8.27011 17.3329 8.26194 17.2757 8.26194 17.2103Z" fill="#828186"/>
<path d="M14.3419 15.2C14.3419 15.1346 14.3419 15.0774 14.3583 15.0202C14.4482 14.3828 14.9957 13.8843 15.6576 13.8843C16.3196 13.8843 16.8671 14.3746 16.957 15.0202C16.9652 15.0774 16.9733 15.1346 16.9733 15.2C16.9733 15.2654 16.9733 15.3226 16.957 15.3798C16.8671 16.0172 16.3196 16.5157 15.6576 16.5157C14.9957 16.5157 14.4482 16.0254 14.3583 15.3798C14.3501 15.3226 14.3419 15.2654 14.3419 15.2Z" fill="#828186"/>
<path d="M2.32903 15.2C2.32903 15.1346 2.32903 15.0774 2.34538 15.0202C2.43527 14.3828 2.9828 13.8843 3.64473 13.8843C4.30667 13.8843 4.85419 14.3746 4.94409 15.0202C4.95226 15.0774 4.96043 15.1346 4.96043 15.2C4.96043 15.2654 4.96043 15.3226 4.94409 15.3798C4.85419 16.0172 4.30667 16.5157 3.64473 16.5157C2.9828 16.5157 2.43527 16.0254 2.34538 15.3798C2.3372 15.3226 2.32903 15.2654 2.32903 15.2Z" fill="#828186"/>
<path d="M19 8.59699C19 8.66237 19 8.71957 18.9837 8.77677C18.8938 9.41419 18.3462 9.91269 17.6843 9.91269C17.0224 9.91269 16.4748 9.42237 16.3849 8.77677C16.3768 8.71957 16.3686 8.66237 16.3686 8.59699C16.3686 8.53161 16.3686 8.47441 16.3849 8.4172C16.4748 7.77979 17.0224 7.28129 17.6843 7.28129C18.3462 7.28129 18.8938 7.77161 18.9837 8.4172C18.9918 8.47441 19 8.53161 19 8.59699Z" fill="#828186"/>
</svg>
